<svg width="94" height="19" viewBox="0 0 94 19" fill="none" xmlns="http://www.w3.org/2000/svg">
<path d="M8.88298 5.50907V8.62836H6.0498V13.8607C6.0498 14.2967 6.15845 14.6154 6.37574 14.8166C6.59303 15.0179 6.91062 15.1353 7.32849 15.1688C7.74637 15.1856 8.26453 15.1772 8.88298 15.1436V18.0868C6.69332 18.3384 5.13048 18.1372 4.19444 17.4831C3.27512 16.8123 2.81546 15.6048 2.81546 13.8607V8.62836H0.634155V5.50907H2.81546V1.98729H6.0498V5.50907H8.88298Z" fill="white"/>
<path d="M22.5807 13.1312H13.1284C13.5463 14.7076 14.7247 15.4958 16.6637 15.4958C17.9006 15.4958 18.8366 15.0766 19.4718 14.238L22.0793 15.7474C20.8424 17.5418 19.0205 18.439 16.6135 18.439C14.5409 18.439 12.8777 17.8101 11.6241 16.5524C10.3705 15.2946 9.74367 13.7098 9.74367 11.798C9.74367 9.91967 10.3621 8.34326 11.599 7.06871C12.8192 5.79416 14.4071 5.15689 16.3628 5.15689C18.2181 5.15689 19.7309 5.79416 20.9009 7.06871C22.1044 8.34326 22.7061 9.91967 22.7061 11.798C22.7061 12.1501 22.6643 12.5945 22.5807 13.1312ZM13.0783 10.6156H19.4718C19.2879 9.7939 18.9118 9.16501 18.3435 8.72898C17.7919 8.29295 17.1317 8.07493 16.3628 8.07493C15.4936 8.07493 14.7749 8.30133 14.2066 8.75413C13.6383 9.19016 13.2622 9.81067 13.0783 10.6156Z" fill="white"/>
<path d="M35.1708 16.5272C33.9005 17.8017 32.3293 18.439 30.4572 18.439C28.5851 18.439 27.0139 17.8017 25.7436 16.5272C24.4733 15.2527 23.8381 13.6762 23.8381 11.798C23.8381 9.93645 24.4733 8.36841 25.7436 7.09387C27.0306 5.80255 28.6019 5.15689 30.4572 5.15689C32.3126 5.15689 33.8838 5.80255 35.1708 7.09387C36.4579 8.38519 37.1014 9.95322 37.1014 11.798C37.1014 13.6595 36.4579 15.2359 35.1708 16.5272ZM28.0252 14.2884C28.6771 14.9424 29.4877 15.2694 30.4572 15.2694C31.4267 15.2694 32.2374 14.9424 32.8892 14.2884C33.5411 13.6343 33.8671 12.8042 33.8671 11.798C33.8671 10.7917 33.5411 9.9616 32.8892 9.30756C32.2374 8.65351 31.4267 8.32649 30.4572 8.32649C29.4877 8.32649 28.6771 8.65351 28.0252 9.30756C27.39 9.97837 27.0724 10.8085 27.0724 11.798C27.0724 12.7874 27.39 13.6175 28.0252 14.2884Z" fill="white"/>
<path d="M48.5031 6.99324V0.477955H51.7374V18.0868H48.5031V16.6027C47.5503 17.8269 46.1964 18.439 44.4414 18.439C42.7531 18.439 41.3073 17.8017 40.1038 16.5272C38.9171 15.2359 38.3237 13.6595 38.3237 11.798C38.3237 9.95322 38.9171 8.38519 40.1038 7.09387C41.3073 5.80255 42.7531 5.15689 44.4414 5.15689C46.1964 5.15689 47.5503 5.76901 48.5031 6.99324ZM42.5358 14.3638C43.2212 15.0179 44.0569 15.3449 45.0431 15.3449C46.046 15.3449 46.8734 15.0179 47.5253 14.3638C48.1771 13.693 48.5031 12.8377 48.5031 11.798C48.5031 10.7582 48.1771 9.91129 47.5253 9.25724C46.8734 8.58643 46.046 8.25102 45.0431 8.25102C44.0402 8.25102 43.2044 8.58643 42.5358 9.25724C41.884 9.91129 41.558 10.7582 41.558 11.798C41.558 12.8377 41.884 13.693 42.5358 14.3638Z" fill="white"/>
<path d="M57.5536 5.50907V7.67244C57.8378 6.88424 58.3225 6.28889 59.0078 5.8864C59.6932 5.46714 60.4788 5.25751 61.3647 5.25751V8.87991C60.3785 8.74575 59.4926 8.94699 58.707 9.48364C57.9381 10.0035 57.5536 10.8672 57.5536 12.0747V18.0868H54.3193V5.50907H57.5536Z" fill="white"/>
<path d="M64.4848 3.99973C63.9499 3.99973 63.4819 3.80687 63.0807 3.42116C62.6963 3.01867 62.5041 2.5491 62.5041 2.01244C62.5041 1.47579 62.6963 1.00622 63.0807 0.603733C63.4819 0.201245 63.9499 0 64.4848 0C65.0364 0 65.5044 0.201245 65.8888 0.603733C66.29 1.00622 66.4906 1.47579 66.4906 2.01244C66.4906 2.5491 66.29 3.01867 65.8888 3.42116C65.5044 3.80687 65.0364 3.99973 64.4848 3.99973ZM66.1145 18.0868H62.8802V5.50907H66.1145V18.0868Z" fill="white"/>
<path d="M73.8887 14.3135L76.9475 5.50907H80.5078L75.7441 18.0868H72.0584L67.2947 5.50907H70.8549L73.8887 14.3135Z" fill="white"/>
<path d="M93.3868 13.1312H83.9345C84.3524 14.7076 85.5308 15.4958 87.4697 15.4958C88.7066 15.4958 89.6427 15.0766 90.2779 14.238L92.8854 15.7474C91.6485 17.5418 89.8266 18.439 87.4196 18.439C85.3469 18.439 83.6838 17.8101 82.4302 16.5524C81.1766 15.2946 80.5497 13.7098 80.5497 11.798C80.5497 9.91967 81.1682 8.34326 82.4051 7.06871C83.6253 5.79416 85.2132 5.15689 87.1689 5.15689C89.0242 5.15689 90.5369 5.79416 91.707 7.06871C92.9105 8.34326 93.5122 9.91967 93.5122 11.798C93.5122 12.1501 93.4704 12.5945 93.3868 13.1312ZM83.8844 10.6156H90.2779C90.094 9.7939 89.7179 9.16501 89.1496 8.72898C88.598 8.29295 87.9378 8.07493 87.1689 8.07493C86.2997 8.07493 85.581 8.30133 85.0126 8.75413C84.4443 9.19016 84.0682 9.81067 83.8844 10.6156Z" fill="white"/>
</svg>
