<svg width="32" height="36" viewBox="0 0 32 36" fill="none" xmlns="http://www.w3.org/2000/svg">
<path d="M9.41185 34.7802L10.0358 30.8172L8.64597 30.7849H2.00952L6.62151 1.54188C6.63583 1.4536 6.68235 1.37129 6.75035 1.31283C6.81835 1.25438 6.90544 1.22217 6.9961 1.22217H18.1861C21.901 1.22217 24.4646 1.99521 25.8031 3.521C26.4306 4.23678 26.8303 4.98477 27.0235 5.80791C27.2263 6.67162 27.2299 7.70353 27.0319 8.9621L27.0176 9.05396V9.8604L27.6451 10.2159C28.1736 10.4963 28.5935 10.8172 28.9156 11.1846C29.4524 11.7966 29.7996 12.5744 29.9463 13.4965C30.0978 14.445 30.0477 15.5735 29.7996 16.8512C29.5133 18.3209 29.0504 19.6009 28.4253 20.6484C27.8503 21.6135 27.1178 22.4139 26.2481 23.0343C25.4178 23.6236 24.4312 24.071 23.3158 24.3573C22.235 24.6388 21.0027 24.7808 19.651 24.7808H18.7802C18.1574 24.7808 17.5526 25.005 17.0778 25.4071C16.6018 25.8175 16.2869 26.3781 16.1903 26.9913L16.1246 27.348L15.0223 34.3328L14.9722 34.5893C14.9591 34.6704 14.9365 34.711 14.9031 34.7384C14.8732 34.7635 14.8303 34.7802 14.7885 34.7802H9.41185Z" fill="#253B80"/>
<path d="M28.2396 9.14697C28.2062 9.36051 28.1681 9.57882 28.1251 9.8031C26.6494 17.3796 21.6008 19.997 15.1529 19.997H11.8698C11.0813 19.997 10.4168 20.5696 10.2939 21.3474L8.61304 32.0077L8.13705 35.0295C8.05712 35.5401 8.4508 36.0005 8.96616 36.0005H14.789C15.4785 36.0005 16.0643 35.4995 16.1728 34.8195L16.2301 34.5236L17.3264 27.5663L17.3968 27.1845C17.5042 26.5022 18.0911 26.0011 18.7807 26.0011H19.6515C25.293 26.0011 29.7094 23.7106 31.0002 17.0826C31.5394 14.3137 31.2602 12.0017 29.8334 10.3757C29.4016 9.88542 28.8659 9.47862 28.2396 9.14697Z" fill="#179BD7"/>
<path d="M26.6955 8.53151C26.47 8.46589 26.2374 8.40624 25.9988 8.35256C25.759 8.30007 25.5133 8.25355 25.2604 8.21299C24.3752 8.06983 23.4053 8.00183 22.3662 8.00183H13.5956C13.3796 8.00183 13.1745 8.05074 12.9907 8.13902C12.5863 8.33347 12.2857 8.71642 12.2129 9.18525L10.3471 21.0027L10.2935 21.3475C10.4163 20.5697 11.0808 19.9971 11.8694 19.9971H15.1524C21.6003 19.9971 26.649 17.3785 28.1247 9.8032C28.1688 9.57893 28.2058 9.36061 28.2392 9.14707C27.8658 8.94904 27.4614 8.77964 27.0259 8.63529C26.9186 8.5995 26.8076 8.56491 26.6955 8.53151Z" fill="#222D65"/>
<path d="M12.9911 8.14019C13.176 8.05191 13.38 8.003 13.5959 8.003H22.3666C23.4056 8.003 24.3755 8.071 25.2607 8.21415C25.5136 8.25471 25.7593 8.30124 25.9991 8.35373C26.2377 8.40741 26.4703 8.46706 26.6958 8.53267C26.8079 8.56607 26.9189 8.60067 27.0275 8.63527C27.4629 8.77961 27.8673 8.95021 28.2407 9.14705C28.6797 6.34717 28.2371 4.44081 26.7232 2.7146C25.0543 0.81421 22.0421 0.000610352 18.1876 0.000610352H6.99763C6.21028 0.000610352 5.53864 0.573232 5.41696 1.35224L0.756057 30.8959C0.664199 31.4805 1.11514 32.0078 1.70446 32.0078H8.6129L10.3475 21.0027L12.2133 9.18522C12.286 8.71639 12.5867 8.33345 12.9911 8.14019Z" fill="#253B80"/>
</svg>
