<svg width="67" height="39" viewBox="0 0 67 39" fill="none" xmlns="http://www.w3.org/2000/svg">
<path d="M7.09059 18.8656C6.2919 18.8656 5.50665 18.7809 4.75631 18.6135C3.98943 18.446 3.29029 18.1724 2.67042 17.8035C2.04486 17.4297 1.53231 16.9313 1.15035 16.3277C0.767361 15.7183 0.566297 14.9929 0.550781 14.1743V14.0321H5.49113L5.49993 14.1616C5.52695 14.5587 5.70784 14.9005 6.04623 15.2101C6.29578 15.4359 6.71058 15.5468 7.25985 15.5468C7.64659 15.5468 7.99764 15.4709 8.339 15.3132C8.6426 15.1672 8.78962 14.9667 8.78962 14.6931C8.78962 14.367 8.65527 14.1431 8.36796 14.0009C8.0557 13.8413 7.33045 13.6621 6.20578 13.4655C4.33272 13.1501 2.95476 12.6613 2.12503 12.0101C1.27888 11.3452 0.844683 10.4252 0.844683 9.27159C0.844683 8.46746 1.04096 7.77247 1.42874 7.21065C1.80889 6.66061 2.31458 6.21284 2.92579 5.89838C3.53015 5.59167 4.1954 5.361 4.91587 5.2286C6.42624 4.94633 7.9445 4.9784 9.27799 5.21502C9.9907 5.34057 10.6579 5.56155 11.271 5.87691C11.8936 6.18943 12.4014 6.62945 12.7814 7.18635C13.1614 7.74803 13.378 8.43733 13.411 9.24146L13.4235 9.38744H8.69587L8.69005 9.25309C8.67169 8.90165 8.50826 8.62029 8.18242 8.39454C7.90196 8.15882 7.55957 8.04491 7.16701 8.04491C6.76475 8.04491 6.42624 8.11214 6.16324 8.24157C5.9283 8.35652 5.81801 8.56974 5.81801 8.89868C5.81801 9.02436 5.85964 9.11875 5.93787 9.19375C6.03368 9.28335 6.1613 9.36598 6.31116 9.442C6.53848 9.53342 7.10314 9.66595 7.98122 9.83042C9.13485 10.029 10.0138 10.2296 10.597 10.4321C11.5514 10.7348 12.3269 11.1786 12.8898 11.7579C13.465 12.346 13.762 13.1589 13.762 14.1713C13.762 15.0378 13.5656 15.799 13.1838 16.424C12.8008 17.0471 12.2835 17.5426 11.6472 17.8891C11.0215 18.2338 10.3097 18.4858 9.53038 18.6388C8.75781 18.7876 7.93959 18.8656 7.09059 18.8656Z" fill="white"/>
<path d="M20.1168 18.5425H14.9502V5.34839H20.1168V18.5425ZM20.1168 4.24053H14.9502V0.502179H20.1168V4.24053Z" fill="white"/>
<path d="M35.6514 18.5424H30.4857V11.6363C30.4857 10.8001 30.3832 10.1779 30.1859 9.78563C30.01 9.41854 29.6173 9.23855 29.014 9.23855C28.7963 9.23855 28.5856 9.27346 28.3719 9.34458C28.164 9.41376 27.9714 9.52871 27.7907 9.6902C27.605 9.84498 27.4648 10.0816 27.3565 10.3883C27.2481 10.7037 27.1902 11.1067 27.1902 11.5856V18.5424H22.0234V5.34827H27.019V6.78623C27.9657 5.62097 29.336 5.02605 31.1181 5.02605C32.3782 5.02605 33.4621 5.42236 34.3305 6.18937C35.2056 6.97216 35.6514 8.09941 35.6514 9.54616V18.5424Z" fill="white"/>
<path d="M51.2941 9.50834C51.0688 8.68094 50.7158 7.92246 50.2633 7.25087C49.7963 6.57217 49.2034 6.02613 48.5091 5.62982C47.8022 5.22873 46.9977 5.02624 46.1031 5.02624C45.5172 5.02624 45.0067 5.08275 44.5889 5.18205C44.1663 5.28136 43.8114 5.42255 43.5213 5.59284C43.2438 5.7652 43.0106 5.94441 42.8318 6.12156C42.71 6.24905 42.5727 6.40188 42.4324 6.57424V5.34756H37.4312V22.721H42.6027V17.3256C42.9672 17.7667 43.4217 18.125 43.9526 18.3917C44.5889 18.7062 45.287 18.8659 46.0297 18.8659C47.0721 18.8659 47.9725 18.6614 48.7025 18.2642C49.4374 17.864 50.0263 17.3228 50.4605 16.6491C50.889 15.9813 51.1983 15.2453 51.3695 14.4509C51.5445 13.6624 51.6326 12.8387 51.6326 12.0093C51.6326 11.1692 51.5175 10.331 51.2941 9.50834ZM46.6302 13.1668C46.5664 13.5494 46.4494 13.9028 46.2869 14.2144C46.1187 14.5347 45.8749 14.7946 45.5665 14.9923C45.258 15.186 44.878 15.2833 44.4467 15.2833C44.0145 15.2833 43.6344 15.186 43.325 14.9923C43.0194 14.7946 42.7738 14.5298 42.6045 14.1998C42.4479 13.8843 42.329 13.5328 42.2593 13.1532C42.1945 12.7872 42.1578 12.3792 42.1578 11.9596C42.1578 11.5178 42.1945 11.1011 42.2593 10.7262C42.329 10.3368 42.4479 9.98533 42.6045 9.67876C42.7738 9.36042 43.0194 9.09858 43.325 8.90386C43.6335 8.70615 44.0096 8.60983 44.4467 8.60983C44.8838 8.60983 45.258 8.70615 45.5665 8.90386C45.8779 9.09858 46.1187 9.3643 46.2899 9.69234C46.4494 10.0126 46.5664 10.3651 46.6302 10.7379C46.6988 11.1059 46.7375 11.5138 46.7375 11.9596C46.7375 12.3841 46.6988 12.7891 46.6302 13.1668Z" fill="white"/>
<path d="M66.6501 13.0507C66.6501 10.4564 66.0389 8.45272 64.8331 7.08692C63.6215 5.72111 61.7367 5.02598 59.2128 5.02598C58.211 5.02598 57.2759 5.2052 56.4163 5.56142C55.5652 5.91286 54.8168 6.42011 54.2086 7.05976C53.5935 7.69825 53.1189 8.44884 52.7871 9.29292C52.468 10.1351 52.2988 11.0404 52.2988 11.9828C52.2988 13.0595 52.4826 14.0369 52.8451 14.8887C53.2039 15.7405 53.7261 16.4737 54.3885 17.0674C55.05 17.6544 55.84 18.1052 56.7374 18.408C57.627 18.7117 58.6009 18.8655 59.6393 18.8655C61.1846 18.8655 62.58 18.5121 63.7965 17.8161C65.014 17.1151 65.8794 16.0647 66.3658 14.6931L66.4325 14.5041H61.5917L61.552 14.5694C61.3789 14.8459 61.1217 15.0514 60.7736 15.1953C60.4081 15.3482 60.0251 15.4261 59.6103 15.4261C58.9112 15.4261 58.3483 15.209 57.949 14.7846C57.5728 14.3814 57.3475 13.8509 57.2663 13.1929H66.6501V13.0507ZM61.9495 10.6325H56.9753L57.0042 10.4631C57.2469 8.95325 58.1395 8.18404 59.6576 8.18404C60.3172 8.18404 60.8742 8.40799 61.3026 8.84903C61.7338 9.29098 61.9495 9.84297 61.9495 10.4934V10.6325Z" fill="white"/>
<path d="M24.1866 38.2808H23.1692C22.966 38.2808 22.7977 38.1069 22.7977 37.89V30.3049C22.7977 27.8898 22.3521 26.3958 20.1455 26.3958C18.2392 26.3958 16.711 28.2177 16.2465 29.9323C16.0906 30.4641 16.0166 31.0441 16.0166 31.76V37.89C16.0166 38.1069 15.8511 38.2808 15.645 38.2808H14.6298C14.4202 38.2808 14.2547 38.1069 14.2547 37.89V30.3049C14.2547 27.8283 13.8294 26.3958 11.6736 26.3958C9.6773 26.3958 8.1295 28.2879 7.63097 30.1573C7.5091 30.5985 7.4503 31.1224 7.4503 31.76V37.89C7.4503 38.1069 7.28118 38.2808 7.07655 38.2808H6.0592C5.85312 38.2808 5.68555 38.1069 5.68555 37.89V25.3307C5.68555 25.1159 5.85312 24.9406 6.0592 24.9406H7.07655C7.28118 24.9406 7.4503 25.1159 7.4503 25.3307V26.9751C8.48948 25.5871 10.1859 24.6396 11.6736 24.6396C13.8294 24.6396 15.1414 25.5308 15.669 27.3681C16.4788 26.0649 18.0817 24.6396 20.1455 24.6396C24.1068 24.6396 24.5632 27.656 24.5632 29.9279V37.89C24.5632 38.1069 24.3941 38.2808 24.1866 38.2808Z" fill="white"/>
<path d="M32.4385 24.6392C28.7159 24.6392 25.7959 27.6666 25.7959 31.5355C25.7959 35.4869 28.7159 38.5822 32.4385 38.5822C36.1646 38.5822 39.0803 35.4869 39.0803 31.5355C39.0803 27.6666 36.1646 24.6392 32.4385 24.6392ZM32.4385 36.9874C29.6179 36.9874 27.4046 34.5913 27.4046 31.5355C27.4046 28.56 29.6179 26.2325 32.4385 26.2325C35.2656 26.2325 37.473 28.56 37.473 31.5355C37.473 34.5913 35.2656 36.9874 32.4385 36.9874Z" fill="white"/>
<path d="M32.9498 23.4812H31.886C31.7481 23.4812 31.627 23.4067 31.5573 23.2825C31.4927 23.1604 31.4949 23.0136 31.5623 22.8931L33.1871 20.1025C33.2524 19.9885 33.3765 19.9162 33.5035 19.9162H34.8619C35.0012 19.9162 35.1304 19.9973 35.1979 20.1266C35.2603 20.2573 35.248 20.4115 35.1637 20.5306L33.2524 23.3183C33.1814 23.4206 33.0695 23.4812 32.9498 23.4812Z" fill="white"/>
<path d="M44.906 38.2808H43.9365C43.7819 38.2808 43.6455 38.1836 43.5889 38.0361L38.8214 25.4738C38.7756 25.3518 38.788 25.2167 38.8592 25.1093C38.9266 25.0048 39.0442 24.9406 39.169 24.9406H40.2582C40.4127 24.9406 40.5492 25.0385 40.6065 25.189L44.3305 35.0364C44.3618 35.1191 44.3922 35.2038 44.4198 35.2893C44.4481 35.2059 44.4794 35.1241 44.5055 35.043L48.2353 25.189C48.2897 25.0385 48.4275 24.9406 48.5829 24.9406H49.6473C49.7707 24.9406 49.8869 25.0048 49.9601 25.1093C50.0283 25.2167 50.0392 25.3518 49.9972 25.4716L45.25 38.0361C45.1933 38.1836 45.0575 38.2808 44.906 38.2808Z" fill="white"/>
<path d="M52.1137 22.5259H50.9069C50.6994 22.5259 50.5317 22.3521 50.5317 22.138V20.3023C50.5317 20.0903 50.6994 19.9165 50.9069 19.9165H52.1137C52.3219 19.9165 52.4904 20.0903 52.4904 20.3023V22.138C52.4904 22.3521 52.3219 22.5259 52.1137 22.5259Z" fill="white"/>
<path d="M52.0197 38.2808H51.0059C50.7963 38.2808 50.625 38.1069 50.625 37.89V25.3307C50.625 25.1159 50.7963 24.9406 51.0059 24.9406H52.0197C52.2236 24.9406 52.3934 25.1159 52.3934 25.3307V37.89C52.3934 38.1069 52.2236 38.2808 52.0197 38.2808Z" fill="white"/>
<path d="M57.3158 38.3792C56.6736 38.3792 54.5728 38.1629 54.5728 35.3526V20.3021C54.5728 20.0903 54.7397 19.9165 54.9458 19.9165H55.9632C56.167 19.9165 56.3354 20.0903 56.3354 20.3021V35.0282C56.3354 36.5982 57.0763 36.5982 57.3927 36.5982C57.5509 36.5982 57.6981 36.5777 57.6981 36.5777C57.8216 36.5608 57.9173 36.5982 58.0015 36.669C58.0806 36.7435 58.1292 36.8494 58.1292 36.9634V37.9416C58.1292 38.1257 58.0073 38.282 57.8383 38.3222C57.7707 38.3346 57.548 38.3792 57.3158 38.3792Z" fill="white"/>
</svg>
