<svg width="27" height="26" viewBox="0 0 27 26" fill="none" xmlns="http://www.w3.org/2000/svg">
<path d="M0 0.650183C0 0.291097 0.291096 0 0.650181 0H8.22786C8.58695 0 8.87805 0.291096 8.87805 0.650182V8.22787C8.87805 8.58695 8.58695 8.87805 8.22787 8.87805H0.650182C0.291097 8.87805 0 8.58695 0 8.22787V0.650183Z" fill="#2263F3"/>
<path fill-rule="evenodd" clip-rule="evenodd" d="M18.0254 0C17.8529 0 17.6875 0.0692574 17.5656 0.192537L9.06842 8.78357C8.94649 8.90685 8.87799 9.07406 8.87799 9.2484L8.87799 17.9522V25.3413C8.87799 25.927 9.57833 26.2203 9.98792 25.8061L17.5656 18.1448C17.6875 18.0215 17.756 17.8543 17.756 17.6799L17.756 9.63348C17.756 9.27042 18.0471 8.97611 18.4062 8.97611H25.9839C26.343 8.97611 26.6341 8.6818 26.6341 8.31875V0.657363C26.6341 0.294312 26.343 0 25.9839 0H18.0254Z" fill="#2263F3"/>
</svg>
